<svg xmlns="http://www.w3.org/2000/svg" viewBox="0 0 128 128" fill="none">
  <g id="cracked-treasure-b" stroke="#17324A" stroke-linejoin="round">
    <path d="m13 42-8-7M91 15l4-11M115 77l10 5M30 110l-7 10" stroke="#F07BD7" stroke-width="4" stroke-linecap="round"/>
    <path d="m18 66 11-32 27-16 1 34-12 15 11 11-16 25-21-17Z" fill="#8FA6B8" stroke-width="6"/>
    <path d="m63 18 28 8 20 27-6 34-28 22-2-21 8-24-13-11Z" fill="#8FA6B8" stroke-width="6"/>
    <path d="m57 52 13 1 13 11-8 24-19-10-11-11Z" fill="#F5A623" stroke-width="4"/>
    <path d="m59 58 9 1 8 7-5 14-11-7-7-6Z" fill="#BDFBFF" stroke-width="3"/>
    <path d="m29 34 17 13M40 103l12-18M91 26 78 47M105 87 82 83" stroke-width="4" stroke-linecap="round"/>
  </g>
</svg>
